<mxfile host="app.diagrams.net" agent="Mozilla/5.0 (Windows NT 10.0; Win64; x64) AppleWebKit/537.36 (KHTML, like Gecko) Chrome/135.0.0.0 Safari/537.36" version="26.2.14">
  <diagram name="Page-1" id="38b20595-45e3-9b7f-d5ca-b57f44c5b66d">
    <mxGraphModel dx="274" dy="994" grid="1" gridSize="10" guides="1" tooltips="1" connect="1" arrows="1" fold="1" page="1" pageScale="1" pageWidth="1100" pageHeight="850" background="none" math="0" shadow="0">
      <root>
        <mxCell id="0" />
        <mxCell id="1" parent="0" />
        <mxCell id="QVsStKLy_f2Y_J5fKTR9-10" value="" style="verticalLabelPosition=bottom;html=1;verticalAlign=top;align=center;shape=mxgraph.floorplan.room;fillColor=strokeColor;" vertex="1" parent="1">
          <mxGeometry x="40" y="-370" width="1320" height="1050" as="geometry" />
        </mxCell>
        <mxCell id="QVsStKLy_f2Y_J5fKTR9-12" value="" style="verticalLabelPosition=bottom;html=1;verticalAlign=top;align=center;shape=mxgraph.floorplan.wallCorner;fillColor=strokeColor;direction=south;" vertex="1" parent="1">
          <mxGeometry x="50" y="270" width="510" height="400" as="geometry" />
        </mxCell>
        <mxCell id="QVsStKLy_f2Y_J5fKTR9-13" value="" style="verticalLabelPosition=bottom;html=1;verticalAlign=top;align=center;shape=mxgraph.floorplan.doorDouble;aspect=fixed;rotation=-180;" vertex="1" parent="1">
          <mxGeometry x="140" y="595" width="160" height="85" as="geometry" />
        </mxCell>
        <mxCell id="QVsStKLy_f2Y_J5fKTR9-16" value="" style="verticalLabelPosition=bottom;html=1;verticalAlign=top;align=center;shape=mxgraph.floorplan.desk_corner;rotation=-180;" vertex="1" parent="1">
          <mxGeometry x="50" y="330" width="150" height="150" as="geometry" />
        </mxCell>
        <mxCell id="QVsStKLy_f2Y_J5fKTR9-17" value="" style="verticalLabelPosition=bottom;html=1;verticalAlign=top;align=center;shape=mxgraph.floorplan.workstation;rotation=-225;" vertex="1" parent="1">
          <mxGeometry x="130" y="420" width="50" height="40" as="geometry" />
        </mxCell>
        <mxCell id="QVsStKLy_f2Y_J5fKTR9-18" value="" style="verticalLabelPosition=bottom;html=1;verticalAlign=top;align=center;shape=mxgraph.floorplan.printer;" vertex="1" parent="1">
          <mxGeometry x="60" y="300" width="40" height="47" as="geometry" />
        </mxCell>
        <mxCell id="QVsStKLy_f2Y_J5fKTR9-20" value="" style="verticalLabelPosition=bottom;html=1;verticalAlign=top;align=center;shape=mxgraph.floorplan.plant;" vertex="1" parent="1">
          <mxGeometry x="60" y="612" width="47" height="51" as="geometry" />
        </mxCell>
        <mxCell id="QVsStKLy_f2Y_J5fKTR9-26" value="" style="verticalLabelPosition=bottom;html=1;verticalAlign=top;align=center;shape=mxgraph.floorplan.doorDouble;aspect=fixed;rotation=-90;" vertex="1" parent="1">
          <mxGeometry x="510" y="527" width="160" height="85" as="geometry" />
        </mxCell>
        <mxCell id="QVsStKLy_f2Y_J5fKTR9-30" value="" style="verticalLabelPosition=bottom;html=1;verticalAlign=top;align=center;shape=mxgraph.floorplan.flat_tv;rotation=90;" vertex="1" parent="1">
          <mxGeometry x="510" y="410" width="70" height="10" as="geometry" />
        </mxCell>
        <mxCell id="QVsStKLy_f2Y_J5fKTR9-31" value="" style="verticalLabelPosition=bottom;html=1;verticalAlign=top;align=center;shape=mxgraph.floorplan.couch;" vertex="1" parent="1">
          <mxGeometry x="377" y="290" width="140" height="50" as="geometry" />
        </mxCell>
        <mxCell id="QVsStKLy_f2Y_J5fKTR9-33" value="" style="verticalLabelPosition=bottom;html=1;verticalAlign=top;align=center;shape=mxgraph.floorplan.plant;" vertex="1" parent="1">
          <mxGeometry x="300" y="290" width="47" height="51" as="geometry" />
        </mxCell>
        <mxCell id="QVsStKLy_f2Y_J5fKTR9-35" value="" style="verticalLabelPosition=bottom;html=1;verticalAlign=top;align=center;shape=mxgraph.floorplan.sofa;rotation=-90;" vertex="1" parent="1">
          <mxGeometry x="300" y="390" width="83" height="50" as="geometry" />
        </mxCell>
        <mxCell id="QVsStKLy_f2Y_J5fKTR9-37" value="" style="verticalLabelPosition=bottom;html=1;verticalAlign=top;align=center;shape=mxgraph.floorplan.table;" vertex="1" parent="1">
          <mxGeometry x="390" y="392.5" width="120" height="45" as="geometry" />
        </mxCell>
        <mxCell id="QVsStKLy_f2Y_J5fKTR9-43" value="" style="group" vertex="1" connectable="0" parent="1">
          <mxGeometry x="840" y="499.5" width="140" height="140" as="geometry" />
        </mxCell>
        <mxCell id="QVsStKLy_f2Y_J5fKTR9-38" value="" style="verticalLabelPosition=bottom;html=1;verticalAlign=top;align=center;shape=mxgraph.floorplan.chair;shadow=0;" vertex="1" parent="QVsStKLy_f2Y_J5fKTR9-43">
          <mxGeometry x="50" width="40" height="52" as="geometry" />
        </mxCell>
        <mxCell id="QVsStKLy_f2Y_J5fKTR9-39" value="" style="verticalLabelPosition=bottom;html=1;verticalAlign=top;align=center;shape=mxgraph.floorplan.chair;shadow=0;direction=west;" vertex="1" parent="QVsStKLy_f2Y_J5fKTR9-43">
          <mxGeometry x="50" y="88" width="40" height="52" as="geometry" />
        </mxCell>
        <mxCell id="QVsStKLy_f2Y_J5fKTR9-40" value="" style="verticalLabelPosition=bottom;html=1;verticalAlign=top;align=center;shape=mxgraph.floorplan.chair;shadow=0;direction=north;" vertex="1" parent="QVsStKLy_f2Y_J5fKTR9-43">
          <mxGeometry y="50" width="52" height="40" as="geometry" />
        </mxCell>
        <mxCell id="QVsStKLy_f2Y_J5fKTR9-41" value="" style="verticalLabelPosition=bottom;html=1;verticalAlign=top;align=center;shape=mxgraph.floorplan.chair;shadow=0;direction=south" vertex="1" parent="QVsStKLy_f2Y_J5fKTR9-43">
          <mxGeometry x="88" y="50" width="52" height="40" as="geometry" />
        </mxCell>
        <mxCell id="QVsStKLy_f2Y_J5fKTR9-42" value="" style="shape=ellipse;shadow=0;html=1;" vertex="1" parent="QVsStKLy_f2Y_J5fKTR9-43">
          <mxGeometry x="20" y="20" width="100" height="100" as="geometry" />
        </mxCell>
        <mxCell id="QVsStKLy_f2Y_J5fKTR9-44" value="" style="group" vertex="1" connectable="0" parent="1">
          <mxGeometry x="680" y="320" width="140" height="140" as="geometry" />
        </mxCell>
        <mxCell id="QVsStKLy_f2Y_J5fKTR9-45" value="" style="verticalLabelPosition=bottom;html=1;verticalAlign=top;align=center;shape=mxgraph.floorplan.chair;shadow=0;" vertex="1" parent="QVsStKLy_f2Y_J5fKTR9-44">
          <mxGeometry x="50" width="40" height="52" as="geometry" />
        </mxCell>
        <mxCell id="QVsStKLy_f2Y_J5fKTR9-46" value="" style="verticalLabelPosition=bottom;html=1;verticalAlign=top;align=center;shape=mxgraph.floorplan.chair;shadow=0;direction=west;" vertex="1" parent="QVsStKLy_f2Y_J5fKTR9-44">
          <mxGeometry x="50" y="88" width="40" height="52" as="geometry" />
        </mxCell>
        <mxCell id="QVsStKLy_f2Y_J5fKTR9-47" value="" style="verticalLabelPosition=bottom;html=1;verticalAlign=top;align=center;shape=mxgraph.floorplan.chair;shadow=0;direction=north;" vertex="1" parent="QVsStKLy_f2Y_J5fKTR9-44">
          <mxGeometry y="50" width="52" height="40" as="geometry" />
        </mxCell>
        <mxCell id="QVsStKLy_f2Y_J5fKTR9-48" value="" style="verticalLabelPosition=bottom;html=1;verticalAlign=top;align=center;shape=mxgraph.floorplan.chair;shadow=0;direction=south" vertex="1" parent="QVsStKLy_f2Y_J5fKTR9-44">
          <mxGeometry x="88" y="50" width="52" height="40" as="geometry" />
        </mxCell>
        <mxCell id="QVsStKLy_f2Y_J5fKTR9-49" value="" style="shape=ellipse;shadow=0;html=1;" vertex="1" parent="QVsStKLy_f2Y_J5fKTR9-44">
          <mxGeometry x="20" y="20" width="100" height="100" as="geometry" />
        </mxCell>
        <mxCell id="QVsStKLy_f2Y_J5fKTR9-50" value="" style="group" vertex="1" connectable="0" parent="1">
          <mxGeometry x="1040" y="420" width="140" height="140" as="geometry" />
        </mxCell>
        <mxCell id="QVsStKLy_f2Y_J5fKTR9-51" value="" style="verticalLabelPosition=bottom;html=1;verticalAlign=top;align=center;shape=mxgraph.floorplan.chair;shadow=0;" vertex="1" parent="QVsStKLy_f2Y_J5fKTR9-50">
          <mxGeometry x="50" width="40" height="52" as="geometry" />
        </mxCell>
        <mxCell id="QVsStKLy_f2Y_J5fKTR9-52" value="" style="verticalLabelPosition=bottom;html=1;verticalAlign=top;align=center;shape=mxgraph.floorplan.chair;shadow=0;direction=west;" vertex="1" parent="QVsStKLy_f2Y_J5fKTR9-50">
          <mxGeometry x="50" y="88" width="40" height="52" as="geometry" />
        </mxCell>
        <mxCell id="QVsStKLy_f2Y_J5fKTR9-53" value="" style="verticalLabelPosition=bottom;html=1;verticalAlign=top;align=center;shape=mxgraph.floorplan.chair;shadow=0;direction=north;" vertex="1" parent="QVsStKLy_f2Y_J5fKTR9-50">
          <mxGeometry y="50" width="52" height="40" as="geometry" />
        </mxCell>
        <mxCell id="QVsStKLy_f2Y_J5fKTR9-54" value="" style="verticalLabelPosition=bottom;html=1;verticalAlign=top;align=center;shape=mxgraph.floorplan.chair;shadow=0;direction=south" vertex="1" parent="QVsStKLy_f2Y_J5fKTR9-50">
          <mxGeometry x="88" y="50" width="52" height="40" as="geometry" />
        </mxCell>
        <mxCell id="QVsStKLy_f2Y_J5fKTR9-55" value="" style="shape=ellipse;shadow=0;html=1;" vertex="1" parent="QVsStKLy_f2Y_J5fKTR9-50">
          <mxGeometry x="20" y="20" width="100" height="100" as="geometry" />
        </mxCell>
        <mxCell id="QVsStKLy_f2Y_J5fKTR9-56" value="" style="group" vertex="1" connectable="0" parent="1">
          <mxGeometry x="920" y="260" width="140" height="140" as="geometry" />
        </mxCell>
        <mxCell id="QVsStKLy_f2Y_J5fKTR9-57" value="" style="verticalLabelPosition=bottom;html=1;verticalAlign=top;align=center;shape=mxgraph.floorplan.chair;shadow=0;" vertex="1" parent="QVsStKLy_f2Y_J5fKTR9-56">
          <mxGeometry x="50" width="40" height="52" as="geometry" />
        </mxCell>
        <mxCell id="QVsStKLy_f2Y_J5fKTR9-58" value="" style="verticalLabelPosition=bottom;html=1;verticalAlign=top;align=center;shape=mxgraph.floorplan.chair;shadow=0;direction=west;" vertex="1" parent="QVsStKLy_f2Y_J5fKTR9-56">
          <mxGeometry x="50" y="88" width="40" height="52" as="geometry" />
        </mxCell>
        <mxCell id="QVsStKLy_f2Y_J5fKTR9-59" value="" style="verticalLabelPosition=bottom;html=1;verticalAlign=top;align=center;shape=mxgraph.floorplan.chair;shadow=0;direction=north;" vertex="1" parent="QVsStKLy_f2Y_J5fKTR9-56">
          <mxGeometry y="50" width="52" height="40" as="geometry" />
        </mxCell>
        <mxCell id="QVsStKLy_f2Y_J5fKTR9-60" value="" style="verticalLabelPosition=bottom;html=1;verticalAlign=top;align=center;shape=mxgraph.floorplan.chair;shadow=0;direction=south" vertex="1" parent="QVsStKLy_f2Y_J5fKTR9-56">
          <mxGeometry x="88" y="50" width="52" height="40" as="geometry" />
        </mxCell>
        <mxCell id="QVsStKLy_f2Y_J5fKTR9-61" value="" style="shape=ellipse;shadow=0;html=1;" vertex="1" parent="QVsStKLy_f2Y_J5fKTR9-56">
          <mxGeometry x="20" y="20" width="100" height="100" as="geometry" />
        </mxCell>
        <mxCell id="QVsStKLy_f2Y_J5fKTR9-62" value="" style="verticalLabelPosition=bottom;html=1;verticalAlign=top;align=center;shape=mxgraph.floorplan.refrigerator;rotation=90;" vertex="1" parent="1">
          <mxGeometry x="1290" y="320" width="60" height="62" as="geometry" />
        </mxCell>
        <mxCell id="QVsStKLy_f2Y_J5fKTR9-63" value="" style="verticalLabelPosition=bottom;html=1;verticalAlign=top;align=center;shape=mxgraph.floorplan.water_cooler;" vertex="1" parent="1">
          <mxGeometry x="560" y="320" width="40" height="40" as="geometry" />
        </mxCell>
        <mxCell id="QVsStKLy_f2Y_J5fKTR9-64" value="" style="verticalLabelPosition=bottom;html=1;verticalAlign=top;align=center;shape=mxgraph.floorplan.water_cooler;" vertex="1" parent="1">
          <mxGeometry x="321.5" y="630" width="40" height="40" as="geometry" />
        </mxCell>
        <mxCell id="QVsStKLy_f2Y_J5fKTR9-65" value="" style="verticalLabelPosition=bottom;html=1;verticalAlign=top;align=center;shape=mxgraph.floorplan.refrigerator;rotation=90;" vertex="1" parent="1">
          <mxGeometry x="1290" y="382" width="60" height="62" as="geometry" />
        </mxCell>
        <mxCell id="QVsStKLy_f2Y_J5fKTR9-66" value="" style="verticalLabelPosition=bottom;html=1;verticalAlign=top;align=center;shape=mxgraph.floorplan.sink_1;rotation=90;" vertex="1" parent="1">
          <mxGeometry x="1296.8700000000001" y="446.25" width="46.25" height="47.5" as="geometry" />
        </mxCell>
        <mxCell id="QVsStKLy_f2Y_J5fKTR9-67" value="" style="verticalLabelPosition=bottom;html=1;verticalAlign=top;align=center;shape=mxgraph.floorplan.sink_1;rotation=90;" vertex="1" parent="1">
          <mxGeometry x="1301.75" y="507.75" width="46.25" height="44" as="geometry" />
        </mxCell>
        <mxCell id="QVsStKLy_f2Y_J5fKTR9-68" value="" style="verticalLabelPosition=bottom;html=1;verticalAlign=top;align=center;shape=mxgraph.floorplan.dresser;rotation=90;" vertex="1" parent="1">
          <mxGeometry x="1260" y="580" width="110" height="65" as="geometry" />
        </mxCell>
      </root>
    </mxGraphModel>
  </diagram>
</mxfile>
